<?xml version="1.0" standalone="no"?>
<!DOCTYPE svg PUBLIC "-//W3C//DTD SVG 20010904//EN"
 "http://www.w3.org/TR/2001/REC-SVG-20010904/DTD/svg10.dtd">
<svg version="1.0" xmlns="http://www.w3.org/2000/svg"
 width="424.000000pt" height="366.000000pt" viewBox="0 0 424.000000 366.000000"
 preserveAspectRatio="xMidYMid meet">

<g transform="translate(0.000000,366.000000) scale(0.100000,-0.100000)"
fill="#000000" stroke="none">
<path d="M1355 3634 c-16 -2 -66 -9 -110 -15 -396 -52 -754 -253 -973 -544
-97 -130 -189 -339 -228 -523 -93 -439 98 -908 487 -1195 130 -95 144 -122
114 -219 -22 -73 -69 -318 -62 -325 7 -7 95 44 264 155 176 115 196 119 433
93 102 -11 207 -24 234 -27 l49 -7 -8 44 c-15 73 -10 127 23 281 70 324 159
488 376 695 232 223 482 334 876 389 57 8 109 19 113 23 6 6 2 42 -8 88 -60
271 -164 464 -350 648 -231 228 -491 360 -830 421 -80 14 -343 26 -400 18z
m-315 -866 c128 -66 145 -210 33 -295 -32 -25 -45 -28 -109 -28 -58 0 -78 4
-101 21 -48 36 -73 82 -73 136 0 57 15 91 62 135 60 58 117 67 188 31z m1118
3 c112 -58 143 -185 66 -271 -41 -45 -101 -65 -176 -58 -44 5 -57 11 -89 45
-63 68 -61 165 4 240 56 63 126 79 195 44z"/>
<path d="M2815 2294 c-332 -49 -597 -174 -787 -372 -133 -138 -218 -293 -275
-498 -24 -86 -27 -117 -28 -244 0 -111 5 -161 19 -214 109 -404 457 -736 894
-852 74 -20 131 -27 238 -31 159 -6 261 5 387 43 172 52 233 45 422 -51 60
-30 116 -55 124 -55 18 0 9 48 -21 110 -28 56 -29 131 -3 185 11 22 62 83 115
135 116 114 175 196 236 324 100 212 125 433 70 630 -131 469 -448 752 -971
867 -87 19 -348 34 -420 23z m-342 -645 c54 -15 77 -56 77 -137 0 -59 -3 -67
-33 -97 -44 -44 -115 -57 -166 -29 -51 28 -81 77 -81 134 0 105 88 161 203
129z m938 -9 c44 -24 63 -127 35 -193 -17 -43 -55 -67 -114 -73 -89 -10 -156
59 -149 154 4 58 29 94 82 118 33 16 111 12 146 -6z"/>
</g>
</svg>
